<svg width="196" height="210" viewBox="0 0 196 210" fill="none" xmlns="http://www.w3.org/2000/svg">
<path d="M84.1571 14.085C80.7358 16.2906 77.5696 18.0196 74.7045 20.1988C55.2925 35.3302 47.1899 55.5931 47.9225 79.8039C48.2815 92.6993 52.214 104.589 60.1606 114.989C67.7089 124.85 77.5022 131.261 89.6982 133.657C110.99 137.759 131.254 124.816 136.442 103.855C138.764 94.456 138.385 84.9058 136.62 75.514C132.253 52.9615 121.387 34.2465 103.65 19.3865C102.58 18.4153 101.608 17.5324 100.149 16.208C101.525 15.8642 102.434 15.4496 103.449 15.3087C117.023 13.6446 129.724 16.8523 141.134 24.0226C172.872 43.9795 189.072 72.8464 188.698 110.393C188.506 130.932 181.522 149.377 166.647 164.201C155.843 174.931 143.446 183.506 129.642 189.919C128.372 190.536 127.092 190.968 125.725 191.498C125.178 191.709 124.622 191.736 123.607 191.876C123.923 190.747 124.062 189.811 124.494 189.141C127.142 184.463 129.898 180.06 132.546 175.383C133.321 174.138 134.086 172.709 134.384 171.208C134.621 170.361 134.07 168.622 133.408 168.375C132.551 167.951 131.086 168.392 129.983 168.63C129.524 168.744 129.278 169.406 129.023 169.883C124.05 178.293 119.175 186.791 114.3 195.289C111.818 199.587 112.66 201.591 117.377 203.04C118.508 203.358 119.453 203.685 120.672 203.906C131.348 205.63 142.024 207.354 152.594 208.805C155.87 209.3 159.304 209.231 162.641 209.073C164.124 209.003 165.774 208.553 167.035 207.75C167.758 207.344 168.426 205.826 168.195 204.908C168.061 204.079 166.824 203.487 166.046 202.781C165.754 202.516 165.295 202.63 164.836 202.745C154.668 203.783 144.706 201.468 134.878 199.982C132.255 199.549 129.818 199.107 126.161 198.444C127.422 197.641 127.872 197.341 128.331 197.227C142.649 191.811 155.046 183.236 166.345 173.133C190.645 151.639 198.284 123.874 193.857 92.5922C190.182 67.1272 177.89 45.8786 158.473 28.9617C149.348 21.0329 139.008 14.8338 127.136 11.4939C116.961 8.63119 106.623 8.09855 96.3424 10.6287C93.4039 11.3251 91.1519 10.8743 88.3953 9.61129C83.0673 7.07656 77.6512 4.6389 72.0956 3.13678C47.6909 -3.79027 25.0711 4.71161 11.6476 26.341C-1.0986 46.6377 -2.81601 68.2705 7.20018 90.4629C9.07936 94.6471 12.0433 98.2226 14.7429 102.089C15.6458 103.44 17.1838 104.482 18.5273 105.347C19.6762 106.036 21.1592 105.966 21.8365 104.633C22.2587 103.777 22.0092 102.489 21.9633 101.562C21.945 101.191 21.4678 100.935 21.176 100.67C11.7042 91.3645 8.06347 79.7391 7.25483 67.1437C6.24455 50.4705 10.8872 35.3877 22.1462 22.5929C31.8194 11.5452 44.1167 6.59725 58.6218 6.83985C67.2738 7.08072 77.2545 9.76688 84.1571 14.085ZM102.984 26.571C115.346 37.9694 123.926 51.7763 128.528 67.8151C131.433 77.7103 132.766 87.7727 131.417 98.0549C127.983 122.556 103.805 133.361 83.9979 125.473C73.5732 121.322 65.6943 114.17 60.644 104.098C51.0479 84.7652 51.9484 65.4005 61.0329 46.206C66.7491 34.045 75.9669 25.0625 88.1304 19.2849C90.6706 18.0499 92.6308 18.2359 94.6643 19.9046C97.476 22.2798 100.181 24.3812 102.984 26.571Z" fill="white"/>
</svg>
